<svg viewBox="0 0 158.752 143.419" xmlns="http://www.w3.org/2000/svg">
<defs>
<style>
                              .logo-gh{fill:currentColor}
                            </style>
</defs>
<g id="logo" transform="translate(.2 .001)">
<g id="XMLID_12_" transform="translate(140.755 33.207)">
<g id="XMLID_17_" transform="translate(5.535 3.151)">
<path class="logo-gh" d="M216.467 63.042v.14c0 .069-.069.069-.14.069s-.14.069-.28.069h-.77a.265.265 0 0 1-.209-.069c-.069 0-.069-.069-.14-.14 0-.069-.069-.14-.069-.209L213.8 60.24a4.284 4.284 0 0 1-.349-.841 1.527 1.527 0 0 0-.49-.63 1.653 1.653 0 0 0-.63-.421 3.109 3.109 0 0 0-.91-.14h-.982v4.834c0 .069 0 .069-.069.14 0 .069-.069.069-.14.069s-.14.069-.209.069h-.7a.265.265 0 0 1-.209-.069c-.069 0-.069-.069-.14-.069 0-.069-.069-.069-.069-.14V52.533a.545.545 0 0 1 .209-.489 1.183 1.183 0 0 1 .349-.14h3.082a1.04 1.04 0 0 1 .489.069 5.922 5.922 0 0 1 1.191.349 1.913 1.913 0 0 1 .841.63 2.625 2.625 0 0 1 .49.841 2.722 2.722 0 0 1 .14 1.058 5.407 5.407 0 0 1-.14 1.058 2.72 2.72 0 0 1-.421.77 3.16 3.16 0 0 1-.7.63c-.281.14-.561.28-.91.421a3.042 3.042 0 0 1 .49.28l.421.421a1.837 1.837 0 0 1 .349.63 8.231 8.231 0 0 1 .349.77l1.058 2.521a2.75 2.75 0 0 1 .14.421c.137.127.137.2.137.269zm-2.241-7.988a1.911 1.911 0 0 0-.281-1.122 1.611 1.611 0 0 0-.982-.63 1.04 1.04 0 0 0-.49-.069h-1.961v3.852h1.471a4.231 4.231 0 0 0 1.058-.14 1.191 1.191 0 0 0 .7-.421 1.021 1.021 0 0 0 .421-.63c-.011-.288.058-.553.058-.839z" id="XMLID_18_" transform="translate(-208.9 -51.898)"></path>
</g>
<g id="XMLID_13_">
<path class="logo-gh" d="M209.9 65.195a8.821 8.821 0 1 1 6.315-2.583 8.9 8.9 0 0 1-6.315 2.583zm0-16.322a7.427 7.427 0 1 0 7.427 7.427 7.427 7.427 0 0 0-7.427-7.427z" id="XMLID_14_" transform="translate(-201 -47.399)"></path>
</g>
</g>
<path class="logo-gh" d="M138.723 52.474a27.551 27.551 0 0 0-4.553-9.948 22.453 22.453 0 0 0-8.27-6.726 29.2 29.2 0 0 0-12.541-2.453 26.458 26.458 0 0 0-11.488 2.593 39.423 39.423 0 0 0-10.792 7.776V3.5a2.2 2.2 0 0 0-.489-1.471A4.665 4.665 0 0 0 88.913.912a13.311 13.311 0 0 0-3.151-.7A48.223 48.223 0 0 0 80.787 0a48.224 48.224 0 0 0-4.974.21 13.311 13.311 0 0 0-3.154.7 3.389 3.389 0 0 0-1.685 1.122 2.2 2.2 0 0 0-.49 1.468v31.741H47.37a45.069 45.069 0 0 0-5.821-1.122 49.563 49.563 0 0 0-6.586-.421A39.849 39.849 0 0 0 22.7 35.519a26.892 26.892 0 0 0-9.525 5.323 23.625 23.625 0 0 0-6.236 8.467A28.144 28.144 0 0 0 4.7 60.729a25.641 25.641 0 0 0 1.68 9.948 21.373 21.373 0 0 0 4.559 6.877A28.03 28.03 0 0 0 5.2 84.7a17.65 17.65 0 0 0-2.172 8.758 13.909 13.909 0 0 0 1.892 7.088 13.565 13.565 0 0 0 5.395 5.114 41.772 41.772 0 0 0-4.485 3.924 23.252 23.252 0 0 0-3.291 4.262A17.336 17.336 0 0 0 .5 118.535a17.685 17.685 0 0 0-.7 5.117 17.2 17.2 0 0 0 1.892 7.988 16.179 16.179 0 0 0 6.085 6.236 34.4 34.4 0 0 0 10.808 4.061 74.025 74.025 0 0 0 15.9 1.471 62.059 62.059 0 0 0 16.669-2.032 37.528 37.528 0 0 0 11.906-5.535 22.6 22.6 0 0 0 7.075-8.266 22.111 22.111 0 0 0 2.381-10.157 20.561 20.561 0 0 0-.421-4.273 3.417 3.417 0 0 0 .489.209 13.776 13.776 0 0 0 3.154.63 48.233 48.233 0 0 0 4.974.209 48.233 48.233 0 0 0 4.974-.209 13.774 13.774 0 0 0 3.154-.63 3.858 3.858 0 0 0 1.68-1.058 2.14 2.14 0 0 0 .489-1.4V62.422a42.391 42.391 0 0 1 8.337-8.337 13.758 13.758 0 0 1 7.916-2.873 11.782 11.782 0 0 1 5.395 1.191 9.7 9.7 0 0 1 3.784 3.363 15.91 15.91 0 0 1 2.241 5.183 36.54 36.54 0 0 1 .77 8.337v41.54a1.908 1.908 0 0 0 .489 1.4 3.58 3.58 0 0 0 1.611 1.058 13.774 13.774 0 0 0 3.154.63 49.725 49.725 0 0 0 5.043.209 47.687 47.687 0 0 0 4.9-.209 13.773 13.773 0 0 0 3.154-.63 3.223 3.223 0 0 0 1.611-1.058 2.606 2.606 0 0 0 .489-1.4v-44.62a50.315 50.315 0 0 0-1.18-13.732zM23.481 55.768A11.464 11.464 0 0 1 25.73 51.7a10.284 10.284 0 0 1 3.784-2.8 12.668 12.668 0 0 1 5.323-1.058 12.523 12.523 0 0 1 9.26 3.291 12.462 12.462 0 0 1 3.273 9.192 14.98 14.98 0 0 1-.77 4.694 11.464 11.464 0 0 1-2.312 3.993 9.985 9.985 0 0 1-3.788 2.663 13.991 13.991 0 0 1-5.395.982 12.2 12.2 0 0 1-9.038-3.228 11.782 11.782 0 0 1-3.291-8.758 14.34 14.34 0 0 1 .705-4.903zm27.813 66.694a9.26 9.26 0 0 1-2.81 3.5 15.169 15.169 0 0 1-5.114 2.521 28.064 28.064 0 0 1-7.848.91 26.13 26.13 0 0 1-11.642-2.1 6.747 6.747 0 0 1-4.133-6.236 15.316 15.316 0 0 1 .209-2.521 6.474 6.474 0 0 1 1.058-2.522 19.506 19.506 0 0 1 2.032-2.733 21.05 21.05 0 0 1 3.363-3.014l14.642.421a15.983 15.983 0 0 1 8.057 2.1 6.35 6.35 0 0 1 2.942 5.6 9.774 9.774 0 0 1-.756 4.074zm14.571-20.386a23.868 23.868 0 0 0-8.2-4.273 43.109 43.109 0 0 0-11.07-1.752l-17.727-.63a10.414 10.414 0 0 1-5.821-1.68 4.564 4.564 0 0 1-2.077-3.855 7.35 7.35 0 0 1 .77-3.291 11.467 11.467 0 0 1 1.752-2.521 18.434 18.434 0 0 0 4.9 2.032 26.011 26.011 0 0 0 6.726.841 41.276 41.276 0 0 0 12.47-1.752 27.011 27.011 0 0 0 9.525-5.114 22.008 22.008 0 0 0 6.087-8.338 28.655 28.655 0 0 0 2.1-11.279 18.2 18.2 0 0 0-.77-5.183 11.581 11.581 0 0 0-2.594-4.481h8.546v57.3a16.764 16.764 0 0 0-4.617-6.025z" id="XMLID_2_"></path>
</g>
</svg>